<svg width="400" height="400" viewBox="0 0 400 400" xmlns="http://www.w3.org/2000/svg">
<rect width="100%" height="100%" style="fill:white;stroke:;stroke-width:1" />
<line x1="200.0" y1="200.0" x2="300.0" y2="200.0" stroke-linecap="round" style="stroke:black;stroke-width:1" />
<line x1="300.0" y1="200.0" x2="350.0" y2="113.397" stroke-linecap="round" style="stroke:black;stroke-width:1" />
<line x1="350.0" y1="113.397" x2="300.0" y2="26.794" stroke-linecap="round" style="stroke:black;stroke-width:1" />
<line x1="300.0" y1="26.794" x2="200.0" y2="26.794" stroke-linecap="round" style="stroke:black;stroke-width:1" />
<line x1="200.0" y1="26.794" x2="150.0" y2="113.397" stroke-linecap="round" style="stroke:black;stroke-width:1" />
<line x1="150.0" y1="113.397" x2="200.0" y2="200.0" stroke-linecap="round" style="stroke:black;stroke-width:1" />
<line x1="200.0" y1="200.0" x2="300.0" y2="200.0" stroke-linecap="round" style="stroke:black;stroke-width:1" />
<line x1="300.0" y1="200.0" x2="350.0" y2="113.397" stroke-linecap="round" style="stroke:black;stroke-width:1" />
<line x1="350.0" y1="113.397" x2="300.0" y2="26.794" stroke-linecap="round" style="stroke:black;stroke-width:1" />
<line x1="300.0" y1="26.794" x2="200.0" y2="26.794" stroke-linecap="round" style="stroke:black;stroke-width:1" />
<line x1="200.0" y1="26.794" x2="150.0" y2="113.397" stroke-linecap="round" style="stroke:black;stroke-width:1" />
<line x1="150.0" y1="113.397" x2="200.0" y2="200.0" stroke-linecap="round" style="stroke:black;stroke-width:1" />
<line x1="200.0" y1="200.0" x2="300.0" y2="200.0" stroke-linecap="round" style="stroke:black;stroke-width:1" />
<line x1="300.0" y1="200.0" x2="350.0" y2="113.397" stroke-linecap="round" style="stroke:black;stroke-width:1" />
<line x1="350.0" y1="113.397" x2="300.0" y2="26.794" stroke-linecap="round" style="stroke:black;stroke-width:1" />
<line x1="300.0" y1="26.794" x2="200.0" y2="26.794" stroke-linecap="round" style="stroke:black;stroke-width:1" />
<line x1="200.0" y1="26.794" x2="150.0" y2="113.397" stroke-linecap="round" style="stroke:black;stroke-width:1" />
<line x1="150.0" y1="113.397" x2="200.0" y2="200.0" stroke-linecap="round" style="stroke:black;stroke-width:1" />
<line x1="200.0" y1="200.0" x2="300.0" y2="200.0" stroke-linecap="round" style="stroke:black;stroke-width:1" />
<line x1="300.0" y1="200.0" x2="350.0" y2="113.397" stroke-linecap="round" style="stroke:black;stroke-width:1" />
<line x1="350.0" y1="113.397" x2="300.0" y2="26.794" stroke-linecap="round" style="stroke:black;stroke-width:1" />
<line x1="300.0" y1="26.794" x2="200.0" y2="26.794" stroke-linecap="round" style="stroke:black;stroke-width:1" />
<line x1="200.0" y1="26.794" x2="150.0" y2="113.397" stroke-linecap="round" style="stroke:black;stroke-width:1" />
<line x1="150.0" y1="113.397" x2="200.0" y2="200.0" stroke-linecap="round" style="stroke:black;stroke-width:1" />
<line x1="200.0" y1="200.0" x2="300.0" y2="200.0" stroke-linecap="round" style="stroke:black;stroke-width:1" />
<line x1="300.0" y1="200.0" x2="350.0" y2="113.397" stroke-linecap="round" style="stroke:black;stroke-width:1" />
<line x1="350.0" y1="113.397" x2="300.0" y2="26.794" stroke-linecap="round" style="stroke:black;stroke-width:1" />
<line x1="300.0" y1="26.794" x2="200.0" y2="26.794" stroke-linecap="round" style="stroke:black;stroke-width:1" />
<line x1="200.0" y1="26.794" x2="150.0" y2="113.397" stroke-linecap="round" style="stroke:black;stroke-width:1" />
<line x1="150.0" y1="113.397" x2="200.0" y2="200.0" stroke-linecap="round" style="stroke:black;stroke-width:1" />
<line x1="200.0" y1="200.0" x2="300.0" y2="200.0" stroke-linecap="round" style="stroke:black;stroke-width:1" />
<line x1="300.0" y1="200.0" x2="350.0" y2="113.397" stroke-linecap="round" style="stroke:black;stroke-width:1" />
<line x1="350.0" y1="113.397" x2="300.0" y2="26.794" stroke-linecap="round" style="stroke:black;stroke-width:1" />
<line x1="300.0" y1="26.794" x2="200.0" y2="26.794" stroke-linecap="round" style="stroke:black;stroke-width:1" />
<line x1="200.0" y1="26.794" x2="150.0" y2="113.397" stroke-linecap="round" style="stroke:black;stroke-width:1" />
<line x1="150.0" y1="113.397" x2="200.0" y2="200.0" stroke-linecap="round" style="stroke:black;stroke-width:1" />
</svg>